<mxfile host="65bd71144e">
    <diagram id="ajI7dv0KzTwbDeQ1YzrY" name="Page-1">
        <mxGraphModel dx="2232" dy="997" grid="1" gridSize="10" guides="1" tooltips="1" connect="1" arrows="1" fold="1" page="1" pageScale="1" pageWidth="827" pageHeight="1169" math="0" shadow="0">
            <root>
                <mxCell id="0"/>
                <mxCell id="1" parent="0"/>
                <mxCell id="18" value="" style="rounded=0;whiteSpace=wrap;html=1;fontFamily=Courier New;fontSize=20;fontColor=#4D4D4D;fillColor=#99FF99;" vertex="1" parent="1">
                    <mxGeometry x="374" y="370" width="110" height="30" as="geometry"/>
                </mxCell>
                <mxCell id="17" value="" style="rounded=0;whiteSpace=wrap;html=1;fontFamily=Courier New;fontSize=20;fontColor=#4D4D4D;fillColor=#99FF99;" vertex="1" parent="1">
                    <mxGeometry x="276" y="270" width="60" height="30" as="geometry"/>
                </mxCell>
                <mxCell id="16" value="" style="rounded=0;whiteSpace=wrap;html=1;fontFamily=Courier New;fontSize=20;fontColor=#4D4D4D;fillColor=#99FF99;" vertex="1" parent="1">
                    <mxGeometry x="536" y="270" width="60" height="30" as="geometry"/>
                </mxCell>
                <mxCell id="2" value="&lt;font color=&quot;#999999&quot; face=&quot;Verdana&quot; style=&quot;font-size: 18px;&quot;&gt;the next 2 chars&lt;br&gt;are to be interpreted&lt;br&gt;as hexa digits&lt;/font&gt;" style="text;html=1;strokeColor=none;fillColor=none;align=center;verticalAlign=middle;whiteSpace=wrap;rounded=0;" vertex="1" parent="1">
                    <mxGeometry x="260" y="20" width="220" height="90" as="geometry"/>
                </mxCell>
                <mxCell id="5" value="" style="rounded=0;whiteSpace=wrap;html=1;fontFamily=Verdana;fontSize=60;fillColor=#E6E6E6;fontColor=#333333;strokeColor=none;" vertex="1" parent="1">
                    <mxGeometry x="330" y="140" width="66" height="60" as="geometry"/>
                </mxCell>
                <mxCell id="3" value="&lt;font style=&quot;font-size: 60px;&quot;&gt;\xe8&lt;/font&gt;" style="text;html=1;strokeColor=none;fillColor=none;align=center;verticalAlign=middle;whiteSpace=wrap;rounded=0;fontFamily=Verdana;fontSize=18;" vertex="1" parent="1">
                    <mxGeometry x="370" y="150" width="60" height="30" as="geometry"/>
                </mxCell>
                <mxCell id="6" value="" style="endArrow=classic;html=1;fontFamily=Verdana;fontSize=60;" edge="1" parent="1">
                    <mxGeometry width="50" height="50" relative="1" as="geometry">
                        <mxPoint x="370" y="100" as="sourcePoint"/>
                        <mxPoint x="370" y="130" as="targetPoint"/>
                    </mxGeometry>
                </mxCell>
                <mxCell id="8" value="&lt;font style=&quot;font-size: 25px;&quot;&gt;0 1 2 3&lt;br&gt;4 5 6 7&lt;br&gt;8 9 a b&lt;br&gt;c d e f&lt;/font&gt;" style="rounded=1;whiteSpace=wrap;html=1;fontFamily=Verdana;fontSize=12;fontColor=#999999;fillColor=#99CCFF;strokeColor=none;" vertex="1" parent="1">
                    <mxGeometry x="60" y="30" width="130" height="140" as="geometry"/>
                </mxCell>
                <mxCell id="9" value="&lt;font style=&quot;font-size: 20px;&quot; color=&quot;#333333&quot;&gt;1 digit among 16&amp;nbsp;= 4 bits&lt;/font&gt;" style="text;html=1;strokeColor=none;fillColor=none;align=center;verticalAlign=middle;whiteSpace=wrap;rounded=0;fontFamily=Verdana;fontSize=25;fontColor=#999999;" vertex="1" parent="1">
                    <mxGeometry x="-40" y="150" width="330" height="70" as="geometry"/>
                </mxCell>
                <mxCell id="10" value="&lt;font face=&quot;Courier New&quot; color=&quot;#4d4d4d&quot;&gt;e = 14 = 8+4+2 = 1110&lt;/font&gt;" style="text;html=1;strokeColor=none;fillColor=none;align=center;verticalAlign=middle;whiteSpace=wrap;rounded=0;fontFamily=Verdana;fontSize=20;fontColor=#333333;" vertex="1" parent="1">
                    <mxGeometry x="20" y="270" width="370" height="30" as="geometry"/>
                </mxCell>
                <mxCell id="11" value="&lt;font face=&quot;Courier New&quot; color=&quot;#4d4d4d&quot;&gt;8 = 1000&lt;/font&gt;" style="text;html=1;strokeColor=none;fillColor=none;align=center;verticalAlign=middle;whiteSpace=wrap;rounded=0;fontFamily=Verdana;fontSize=20;fontColor=#333333;" vertex="1" parent="1">
                    <mxGeometry x="477" y="270" width="130" height="30" as="geometry"/>
                </mxCell>
                <mxCell id="12" value="&lt;font style=&quot;font-size: 20px;&quot; color=&quot;#333333&quot;&gt;2 digits = 8 bits = 1 byte&lt;/font&gt;" style="text;html=1;strokeColor=none;fillColor=none;align=center;verticalAlign=middle;whiteSpace=wrap;rounded=0;fontFamily=Verdana;fontSize=25;fontColor=#999999;" vertex="1" parent="1">
                    <mxGeometry x="-40" y="350" width="330" height="70" as="geometry"/>
                </mxCell>
                <mxCell id="13" value="" style="endArrow=classic;html=1;fontFamily=Verdana;fontSize=60;" edge="1" parent="1">
                    <mxGeometry width="50" height="50" relative="1" as="geometry">
                        <mxPoint x="410" y="200" as="sourcePoint"/>
                        <mxPoint x="310" y="260" as="targetPoint"/>
                    </mxGeometry>
                </mxCell>
                <mxCell id="14" value="" style="endArrow=classic;html=1;fontFamily=Verdana;fontSize=60;" edge="1" parent="1">
                    <mxGeometry width="50" height="50" relative="1" as="geometry">
                        <mxPoint x="450" y="200" as="sourcePoint"/>
                        <mxPoint x="560" y="260" as="targetPoint"/>
                    </mxGeometry>
                </mxCell>
                <mxCell id="15" value="&lt;font face=&quot;Courier New&quot; color=&quot;#4d4d4d&quot;&gt;11101000&lt;/font&gt;" style="text;html=1;strokeColor=none;fillColor=none;align=center;verticalAlign=middle;whiteSpace=wrap;rounded=0;fontFamily=Verdana;fontSize=20;fontColor=#333333;" vertex="1" parent="1">
                    <mxGeometry x="370" y="370" width="120" height="30" as="geometry"/>
                </mxCell>
                <mxCell id="19" value="" style="endArrow=classic;html=1;fontFamily=Verdana;fontSize=60;" edge="1" parent="1">
                    <mxGeometry width="50" height="50" relative="1" as="geometry">
                        <mxPoint x="310" y="310" as="sourcePoint"/>
                        <mxPoint x="370" y="360" as="targetPoint"/>
                    </mxGeometry>
                </mxCell>
                <mxCell id="20" value="" style="endArrow=classic;html=1;fontFamily=Verdana;fontSize=60;" edge="1" parent="1">
                    <mxGeometry width="50" height="50" relative="1" as="geometry">
                        <mxPoint x="560" y="310" as="sourcePoint"/>
                        <mxPoint x="490" y="360" as="targetPoint"/>
                    </mxGeometry>
                </mxCell>
            </root>
        </mxGraphModel>
    </diagram>
</mxfile>